# xmcd
#
# Track frame offsets:
# 150
# 24644
# 54269
# 78665
# 100556
# 130851
# 154370
# 179456
# 202581
# 226217
# 253007
#
# Disc length: 3701 seconds
#
#
# Revision: 0
# Processed by: cddbd v1.5.1PL2 Copyright (c) Steve Scherf et al.
# Submitted via: FreeRIP 2.945 
#
DISCID=830e730b
DTITLE=Elliot Murphy - Live at Rockodrom CD1
DYEAR=2005
DGENRE=Rock
TTITLE0=Come On Louann
TTITLE1=Elvis Presley's Birthday
TTITLE2=A Little Push
TTITLE3=Last Of The Rock Stars
TTITLE4=Sonny
TTITLE5=Lo And Behold
TTITLE6=Dragon
TTITLE7=Little Red Roster
TTITLE8=Take Your Live Away
TTITLE9=Fix Me Coffe
TTITLE10=St. Elmo's Hotel
EXTD=
EXTT0=
EXTT1=
EXTT2=
EXTT3=
EXTT4=
EXTT5=
EXTT6=
EXTT7=
EXTT8=
EXTT9=
EXTT10=
PLAYORDER=
